<svg xmlns="http://www.w3.org/2000/svg" width="1358" height="1347" viewBox="0 0 1358 1347" version="1.1">
	<path d="M 651.139 201.750 C 650.627 202.713, 648.779 207.325, 647.031 212 C 645.284 216.675, 643.452 221.400, 642.959 222.500 C 641.836 225.010, 634.662 243.905, 630.820 254.474 C 621.765 279.386, 613.738 296.291, 611.200 295.797 C 609.254 295.419, 583 243.436, 583 239.961 C 583 238.553, 583.369 236.973, 583.820 236.450 C 584.271 235.928, 586.388 231.338, 588.525 226.250 C 590.661 221.162, 592.883 217, 593.461 217 C 594.039 217, 595.155 218.463, 595.941 220.250 C 600.795 231.286, 603.057 235.917, 603.826 236.392 C 604.306 236.689, 605.310 235.789, 606.058 234.391 C 607.260 232.147, 607.169 231.366, 605.276 227.676 C 604.097 225.379, 600.861 218.651, 598.083 212.725 C 595.305 206.799, 592.423 201.716, 591.678 201.430 C 590.933 201.144, 584.358 201.605, 577.067 202.455 C 569.775 203.305, 560.977 204, 557.516 204 C 552.908 204, 550.616 204.490, 548.964 205.828 L 546.705 207.657 548.332 262.532 C 549.575 304.460, 549.682 317.578, 548.785 318.133 C 547.065 319.196, 539.966 313.171, 504.132 280.232 C 489.131 266.442, 470.073 251.008, 468.009 250.978 C 466.464 250.955, 457.965 246.890, 452.379 243.504 L 449.259 241.612 436.749 254.268 C 424.565 266.594, 417.623 275.315, 418.298 277.448 C 418.481 278.026, 424.227 282.418, 431.066 287.207 C 444.833 296.848, 455 305.445, 455 307.444 C 455 308.571, 449.804 312.228, 435 321.520 C 433.075 322.729, 429.545 325.356, 427.155 327.359 C 424.766 329.361, 422.443 331, 421.994 331 C 420.749 331, 401.651 316.448, 395.406 310.740 C 392.369 307.965, 389.019 303.997, 387.961 301.923 C 386.297 298.662, 385.258 297.933, 380.269 296.528 C 377.096 295.634, 372.964 294.315, 371.086 293.597 C 367.914 292.384, 366.777 292.604, 355.086 296.699 C 332.707 304.537, 327.104 308.243, 320.096 319.841 C 314.992 328.288, 314.086 332.634, 316.598 336.618 C 318.812 340.130, 328.295 351.205, 336.617 360 C 348.664 372.731, 351.190 376.107, 350.557 378.629 C 349.917 381.178, 351.114 382.615, 356.985 386.345 C 362.586 389.904, 362.966 391.522, 363.010 412 C 363.031 422.175, 363.469 443.550, 363.982 459.500 C 364.495 475.450, 365.424 507.642, 366.046 531.037 L 367.176 573.574 344.025 620.277 C 318.300 672.173, 320.385 666.109, 322.975 681.500 C 323.438 684.250, 324.317 690.436, 324.927 695.247 C 325.538 700.058, 326.481 707.483, 327.022 711.747 C 327.562 716.011, 328.720 724.450, 329.594 730.500 C 332.137 748.102, 334.190 763.949, 337.495 791.500 C 338.909 803.285, 341.414 822.489, 342.610 830.713 C 343.097 834.069, 343.088 834.060, 373.603 859.500 C 387.673 871.231, 408.936 889.637, 421.500 900.963 C 427 905.921, 435.325 913.014, 440 916.724 C 444.675 920.435, 455.700 929.331, 464.500 936.493 C 473.300 943.656, 485.166 953.113, 490.868 957.508 C 496.570 961.904, 504.479 968.200, 508.443 971.500 C 519.599 980.789, 523.160 983.690, 543 999.657 C 553.175 1007.846, 568.816 1020.529, 577.758 1027.841 C 590.809 1038.514, 595.149 1041.497, 599.758 1042.963 C 634.532 1054.026, 646.625 1057.909, 659 1061.982 C 673.413 1066.726, 686.696 1071.017, 724 1082.977 C 749.217 1091.063, 801.259 1108.083, 816 1113.065 C 822.325 1115.203, 832.600 1118.494, 838.834 1120.378 L 850.169 1123.804 876.834 1121.905 C 891.500 1120.861, 914.300 1119.122, 927.500 1118.042 C 940.700 1116.961, 955.440 1115.885, 960.257 1115.649 C 968.498 1115.246, 969.237 1115.023, 972.819 1111.860 C 974.912 1110.012, 978.172 1107.305, 980.062 1105.845 C 992.367 1096.341, 995.422 1093.864, 1001.602 1088.386 C 1005.396 1085.023, 1011.200 1080.032, 1014.500 1077.295 C 1017.800 1074.559, 1023.200 1069.402, 1026.500 1065.837 C 1033.533 1058.239, 1035.433 1053.376, 1044.412 1020 C 1049.526 1000.989, 1051.328 994.661, 1055.375 981.500 C 1056.927 976.450, 1058.625 970.288, 1061.986 957.500 C 1062.998 953.650, 1064.535 948.025, 1065.401 945 C 1066.505 941.144, 1066.980 935.172, 1066.988 925.020 C 1066.995 917.055, 1067.433 903.330, 1067.963 894.520 C 1068.493 885.709, 1069.424 867.475, 1070.032 854 C 1070.640 840.525, 1071.767 819.150, 1072.535 806.500 C 1073.303 793.850, 1074.443 774.176, 1075.068 762.780 L 1076.204 742.059 1073.749 737.780 C 1070.694 732.454, 1064.126 721.628, 1052.951 703.500 C 1048.204 695.800, 1041.736 685, 1038.577 679.500 C 1025.911 657.447, 1000.587 619.811, 992.704 611.326 L 989.755 608.152 990.987 598.326 C 993.374 579.289, 991.460 560.418, 985.354 542.795 C 983.206 536.595, 982.869 534.446, 983.626 531.795 L 984.568 528.500 995.034 527.867 C 1000.790 527.519, 1009.325 526.548, 1014 525.709 C 1018.675 524.869, 1025.567 523.878, 1029.315 523.505 C 1033.781 523.061, 1036.317 522.338, 1036.674 521.408 C 1037.305 519.762, 1031.895 503.788, 1028.253 496.549 C 1024.657 489.399, 1022.319 486.543, 1016.062 481.651 C 1007.946 475.307, 1006.199 474.521, 1004.167 476.297 C 1003.250 477.099, 998.040 480.064, 992.590 482.888 C 987.139 485.711, 982.189 488.416, 981.590 488.898 C 978.058 491.741, 957.727 501.038, 956.230 500.496 C 953.947 499.669, 944.745 487.222, 945.506 485.990 C 946.365 484.601, 965.623 469.013, 971.500 464.950 C 976.903 461.215, 978.721 460.259, 986.750 456.930 C 991.362 455.018, 992 454.404, 992 451.877 C 992 450.295, 991.550 449, 991 449 C 990.450 449, 990 448.515, 990 447.921 C 990 446.319, 979.069 433.268, 972.684 427.247 C 965.561 420.530, 963.219 419.658, 954.549 420.492 C 945.079 421.403, 939.175 423.856, 932.306 429.732 C 929.113 432.464, 924.250 436.197, 921.500 438.028 C 918.750 439.859, 913.875 443.357, 910.666 445.802 C 907.457 448.246, 902.957 450.809, 900.666 451.496 C 898.375 452.184, 884.904 453.324, 870.732 454.031 L 844.964 455.315 842.482 452.983 C 838.670 449.402, 839.331 447.450, 845.750 443.330 C 868.598 428.667, 879.392 421.698, 892.500 413.145 C 900.750 407.763, 911.797 400.830, 917.049 397.739 C 922.402 394.589, 927.071 391.105, 927.674 389.810 C 931.628 381.326, 931.867 378.603, 929.075 373.807 C 928.016 371.988, 925.969 366.826, 924.528 362.336 C 921.702 353.539, 915.413 343.213, 910.485 339.281 C 908.801 337.937, 903.841 335.250, 899.462 333.309 C 892.088 330.041, 891.168 329.860, 887 330.854 C 884.525 331.444, 880.250 332.216, 877.500 332.570 C 873.805 333.045, 862.882 338.014, 835.656 351.606 C 815.392 361.723, 798.419 370, 797.938 370 C 797.457 370, 795.261 367.561, 793.058 364.579 C 788.064 357.819, 782.865 352.478, 772.002 342.952 C 767.328 338.854, 760.736 332.781, 757.353 329.459 C 752.203 324.401, 749.679 322.819, 741.851 319.742 C 717.701 310.249, 697.735 304.064, 686.250 302.519 C 683.362 302.130, 681 301.546, 681 301.220 C 681 300.894, 681.652 297.899, 682.448 294.564 C 683.882 288.561, 685.523 281.303, 690.488 259 C 695.180 237.925, 699.994 214.521, 699.997 212.776 C 700.002 209.864, 693.149 207.441, 676 204.294 C 674.625 204.042, 669.345 202.972, 664.267 201.918 C 652.962 199.570, 652.304 199.561, 651.139 201.750  M 658.324 208.599 C 658.041 209.335, 658.504 211.863, 659.351 214.218 C 661.105 219.093, 663.064 226.053, 666.555 239.815 C 668.762 248.517, 670.309 252.098, 671.356 250.933 C 671.570 250.695, 674.105 246.034, 676.988 240.576 C 683.086 229.031, 685.468 224.742, 687.522 221.606 C 689.234 218.994, 688.631 218, 685.333 218 C 682.847 218, 682.257 216.143, 684.145 214.255 C 685.004 213.396, 684.693 212.987, 682.895 212.613 C 681.578 212.339, 675.626 211.023, 669.668 209.688 C 660.934 207.732, 658.737 207.521, 658.324 208.599  M 574.500 209.038 C 571.200 209.448, 565.913 209.832, 562.750 209.891 C 558.604 209.970, 557 210.382, 557 211.368 C 557 212.799, 576.762 236, 577.980 236 C 578.736 236, 581 231.490, 581 229.983 C 581 229.475, 582.079 226.683, 583.398 223.780 C 587.341 215.101, 589 210.835, 589 209.378 C 589 207.853, 584.841 207.755, 574.500 209.038  M 650.068 221.203 C 648.837 224.116, 644.684 235.050, 640.840 245.500 C 636.995 255.950, 631.582 269.900, 628.811 276.500 C 626.039 283.100, 623.361 289.572, 622.860 290.882 L 621.949 293.263 624.725 291.470 C 636.350 283.957, 664 257.581, 664 254.003 C 664 251.958, 662.397 245.707, 658.999 234.500 C 657.832 230.650, 656.287 225.330, 655.566 222.678 C 653.594 215.423, 652.620 215.162, 650.068 221.203  M 553.559 226.250 C 553.782 230.238, 554.188 242.500, 554.460 253.500 C 555.130 280.512, 556.057 301.180, 556.680 303 C 557.119 304.280, 564.246 284.144, 567.829 271.500 C 568.453 269.300, 570.321 263.018, 571.982 257.540 C 573.642 252.062, 575 246.389, 575 244.934 C 575 243.433, 573.401 240.169, 571.306 237.394 C 565.055 229.114, 555.777 219, 554.432 219 C 553.475 219, 553.256 220.823, 553.559 226.250  M 685.043 238.026 C 677.767 250.651, 676.643 252.380, 673.318 256.065 L 670.102 259.629 673.150 273.565 C 674.826 281.229, 676.378 287.687, 676.598 287.917 C 677.431 288.781, 677.955 287.164, 679.985 277.468 C 681.133 271.985, 682.924 263.900, 683.966 259.500 C 688.922 238.563, 690.113 232.840, 689.747 231.741 C 689.529 231.086, 687.412 233.915, 685.043 238.026  M 442.406 256.750 C 439.127 259.913, 434.657 264.750, 432.472 267.500 C 430.287 270.250, 428.163 272.650, 427.750 272.833 C 425.412 273.873, 427.616 277.265, 433.250 281.299 C 436.688 283.761, 444.649 289.878, 450.943 294.894 C 457.236 299.910, 462.707 303.674, 463.100 303.257 C 463.493 302.841, 465.008 299.638, 466.467 296.139 C 468.652 290.897, 468.938 289.262, 468.094 286.841 C 467.509 285.163, 467.328 280.552, 467.673 276.091 C 468.346 267.356, 467.532 261.141, 465.617 260.407 C 464.917 260.138, 463.158 260.370, 461.708 260.921 C 459.097 261.914, 459.086 261.961, 460.604 265.593 C 461.588 267.950, 461.792 269.608, 461.172 270.228 C 459.837 271.563, 440.775 269.852, 440.280 268.352 C 440.072 267.721, 442.626 265.550, 445.956 263.527 C 453.336 259.043, 454.778 256.836, 452.548 253.433 C 451.671 252.095, 450.372 251, 449.661 251 C 448.950 251, 445.685 253.588, 442.406 256.750  M 578.576 257.249 C 578.203 259.586, 575.495 268.923, 572.560 277.999 C 562.071 310.431, 559.779 318.113, 560.405 318.738 C 560.753 319.087, 564.518 317.894, 568.769 316.088 C 576.129 312.961, 581.216 311.183, 597.807 305.935 C 601.826 304.664, 605.297 303.329, 605.519 302.969 C 605.742 302.608, 600.938 292.231, 594.843 279.909 C 588.749 267.586, 583.377 256.491, 582.906 255.252 C 581.498 251.551, 579.327 252.552, 578.576 257.249  M 472 264.216 C 472 265.528, 475.895 286.290, 479.182 302.500 C 481.758 315.200, 482.379 316.413, 485.839 315.487 C 492.343 313.748, 501.360 314.015, 517.921 316.441 C 527.502 317.844, 535.602 318.722, 535.921 318.394 C 536.239 318.065, 534.059 315.704, 531.075 313.148 C 528.091 310.591, 519.859 303.100, 512.783 296.500 C 499.521 284.131, 474.326 263, 472.840 263 C 472.378 263, 472 263.547, 472 264.216  M 651.976 276.262 C 639.273 288.650, 632.904 293.900, 625.766 297.868 C 623.162 299.316, 621.138 300.840, 621.268 301.257 C 621.398 301.673, 632.978 302.123, 647.002 302.257 L 672.500 302.500 672.217 299.500 C 672.062 297.850, 670.767 291.775, 669.340 286 C 667.912 280.225, 666.464 273.287, 666.122 270.582 C 665.780 267.877, 665.050 265.520, 664.500 265.344 C 663.950 265.168, 658.314 270.081, 651.976 276.262  M 357.267 302.911 C 340.177 308.089, 330.307 314.445, 325.504 323.364 C 323.708 326.697, 323.697 327.007, 325.300 328.779 C 326.235 329.812, 327 331.560, 327 332.662 C 327 335.855, 327.974 336.039, 331.859 333.580 C 336.920 330.376, 351.310 321.990, 358.500 318.054 C 367.820 312.952, 377 306.639, 377 305.331 C 377 303.388, 371.928 299.996, 369.115 300.057 C 367.677 300.088, 362.345 301.372, 357.267 302.911  M 616.999 309.366 C 617 309.842, 618.503 312.317, 620.340 314.866 C 622.177 317.415, 628.288 326.785, 633.920 335.688 C 639.837 345.044, 644.662 351.683, 645.350 351.419 C 646.744 350.884, 651.462 343.840, 663.360 324.531 C 669.387 314.750, 671.598 310.354, 670.733 309.871 C 668.898 308.844, 616.999 308.356, 616.999 309.366  M 451.500 319.914 C 433.756 335.848, 416 353.573, 416 355.352 C 416 358.093, 417.795 357.288, 426.839 350.490 C 434.484 344.743, 438.831 342.276, 453 335.641 C 457.120 333.712, 462.771 325.903, 464.056 320.362 C 465.361 314.738, 465.221 309.997, 463.750 310.018 C 463.063 310.028, 457.550 314.481, 451.500 319.914  M 599.500 311.925 C 593.566 313.688, 577.944 319.123, 568.750 322.623 C 563.299 324.698, 562.383 327.379, 566.750 328.471 C 570.311 329.362, 584.546 334.592, 604 342.157 C 620.069 348.406, 620.869 348.719, 627.500 351.345 C 633.346 353.659, 635.551 353.812, 635.236 351.880 C 634.895 349.789, 627.147 336.636, 617.486 321.750 C 608.984 308.650, 609.527 308.946, 599.500 311.925  M 690.609 315.250 C 693.382 318.137, 696.919 322.075, 698.471 324 C 701.592 327.874, 711.229 338.936, 714.774 342.715 L 717.047 345.138 721.274 341.985 C 723.598 340.251, 728.987 336.577, 733.250 333.820 C 737.513 331.063, 741 328.395, 741 327.891 C 741 324.978, 696.938 310, 688.368 310 C 685.587 310, 685.601 310.034, 690.609 315.250  M 376.500 314.274 C 373.750 315.944, 369.250 318.746, 366.500 320.501 C 363.750 322.256, 358.350 325.404, 354.500 327.496 C 350.650 329.588, 345.925 332.256, 344 333.423 C 342.075 334.590, 339.270 336.170, 337.767 336.933 C 334.668 338.505, 331 341.703, 331 342.832 C 331 343.898, 344.113 359.396, 350.815 366.250 C 353.907 369.413, 357.161 372, 358.044 372 C 361.017 372, 363.648 367.581, 370.250 351.500 C 377.247 334.457, 383.729 313.284, 382.339 312.008 C 381.878 311.584, 379.250 312.603, 376.500 314.274  M 671.564 323.250 C 667.915 329.438, 662.024 339, 658.472 344.500 C 654.921 350, 652.012 354.837, 652.008 355.250 C 651.995 356.466, 657.960 356.112, 666 354.419 C 670.125 353.551, 680.874 351.314, 689.888 349.449 C 698.901 347.584, 706.505 345.828, 706.786 345.547 C 707.541 344.792, 702.760 338.220, 695.713 330.326 C 692.296 326.499, 687.317 320.810, 684.648 317.684 C 681.980 314.558, 679.437 312, 678.998 312 C 678.559 312, 675.214 317.063, 671.564 323.250  M 386.056 320.750 C 385.438 324.462, 384.536 332, 384.053 337.500 C 383.570 343, 382.753 348.607, 382.238 349.959 C 381.336 352.327, 381.275 352.280, 380.605 348.709 C 379.484 342.732, 378.296 343.848, 375.086 353.899 C 373.992 357.322, 373.621 362, 374.443 362 C 375.461 362, 382 357.743, 382 357.080 C 382 356.297, 393.651 349.673, 406.660 343.061 C 411.147 340.780, 415.096 338.193, 415.434 337.312 C 416.228 335.242, 414.253 333.106, 404.626 325.621 C 392.069 315.860, 389.573 314.084, 388.340 314.041 C 387.677 314.018, 386.699 316.890, 386.056 320.750  M 492.266 319.652 L 489.031 320.124 491.405 322.324 C 493.866 324.605, 504.372 340.849, 508.906 349.383 C 512.561 356.264, 514.369 357.232, 520 355.321 C 522.475 354.482, 526.300 352.411, 528.500 350.720 C 533.681 346.738, 546.414 332.430, 546.792 330.165 C 547.179 327.852, 541.291 324.693, 533.500 323.034 C 530.200 322.331, 525.925 321.344, 524 320.840 C 520.012 319.796, 497.144 318.940, 492.266 319.652  M 475.287 326.774 C 473.073 329.400, 466.788 340.537, 461.320 351.524 C 455.852 362.511, 448.626 376.675, 445.263 383 C 438.621 395.491, 436.382 401.902, 433.043 418 C 431.845 423.775, 430.002 431.425, 428.946 435 C 426.374 443.713, 422.134 462.087, 420.984 469.500 C 420.472 472.800, 419.830 476.726, 419.557 478.224 C 418.940 481.607, 420.792 483.829, 455.070 520.842 C 461.357 527.630, 468.750 535.819, 471.500 539.039 C 474.250 542.260, 476.854 544.543, 477.286 544.112 C 478.268 543.133, 472.102 509.242, 466.987 487.500 C 465.823 482.550, 464.029 474.900, 463.001 470.500 C 461.973 466.100, 460.657 458, 460.077 452.500 C 459.496 447, 458.025 435.220, 456.806 426.323 L 454.590 410.146 457.014 404.823 C 460.165 397.904, 471.742 378.171, 474.419 375.156 C 476.644 372.651, 484.994 367.538, 496.750 361.484 C 501.378 359.101, 503.976 357.163, 503.934 356.126 C 503.898 355.231, 498.991 350.675, 493.031 346 C 483.236 338.317, 479.247 334.420, 480.203 333.464 C 481 332.667, 487.493 336.638, 491.964 340.657 C 497.125 345.297, 498 345.740, 498 343.709 C 498 340.469, 482.429 322, 479.697 322 C 479.486 322, 477.501 324.148, 475.287 326.774  M 548.336 338.939 C 545.831 342.548, 541.257 347.750, 538.172 350.500 C 535.087 353.250, 530.524 357.451, 528.031 359.835 L 523.500 364.171 527.500 363.641 C 529.700 363.350, 546.575 362.176, 565 361.033 C 596.715 359.065, 617.486 356.596, 616.448 354.916 C 616.191 354.499, 607.772 350.940, 597.740 347.007 C 561.773 332.907, 562.086 333.014, 555.994 332.593 C 553.214 332.400, 552.416 333.061, 548.336 338.939  M 741.951 334.979 C 739.503 336.618, 735.700 339.166, 733.500 340.642 C 731.300 342.117, 727.168 345.043, 724.318 347.143 L 719.136 350.962 722.906 360.731 C 724.980 366.104, 728.212 375.782, 730.088 382.239 C 731.965 388.695, 733.981 393.982, 734.570 393.989 C 736.058 394.004, 747.352 348.250, 748.698 336.750 C 749.375 330.967, 748.348 330.697, 741.951 334.979  M 462.500 334.220 C 461.400 334.822, 458.475 336.962, 456 338.975 C 450.431 343.505, 447.489 345.243, 433 352.565 C 421.813 358.218, 413.028 364.281, 409.700 368.646 C 408.283 370.504, 408.200 371.912, 409.082 379.146 C 409.642 383.741, 410.954 396.050, 411.997 406.500 C 414.405 430.629, 417.096 453.377, 417.606 453.917 C 417.823 454.146, 418.195 454.139, 418.432 453.901 C 419.151 453.183, 422.693 438.967, 424.015 431.500 C 426.528 417.297, 433.048 393.773, 436.419 386.742 C 443.740 371.475, 456.215 348.374, 460.625 341.920 C 465.420 334.902, 466.061 332.269, 462.500 334.220  M 754.189 340.685 C 753.681 342.783, 752.718 347.650, 752.048 351.500 C 751.379 355.350, 750.471 359.850, 750.031 361.500 C 749.590 363.150, 748.660 367.200, 747.963 370.500 C 747.267 373.800, 745.482 381.337, 743.997 387.250 C 742.065 394.943, 741.646 398, 742.525 398 C 743.199 398, 750.445 394.564, 758.626 390.365 C 766.807 386.166, 777.888 380.548, 783.250 377.882 C 792.968 373.051, 794.143 371.913, 791.725 369.679 C 791.023 369.030, 787.986 366.270, 784.975 363.545 C 781.964 360.819, 774.403 353.844, 768.173 348.045 C 761.942 342.245, 756.455 337.358, 755.979 337.185 C 755.502 337.012, 754.696 338.587, 754.189 340.685  M 883 340.133 C 883 342.985, 912.372 385, 914.366 385 C 916.071 385, 923 377.741, 923 375.954 C 923 374.238, 918.925 362.778, 916.370 357.307 C 915.392 355.213, 911.657 350.685, 908.070 347.245 C 901.595 341.035, 901.516 340.995, 896.933 341.603 C 893.657 342.038, 891.415 341.749, 889.208 340.608 C 885.573 338.728, 883 338.531, 883 340.133  M 865.848 352.317 C 860.539 356.818, 851.989 364.078, 846.848 368.452 C 841.706 372.825, 833.225 379.989, 828 384.372 C 819.221 391.735, 807.664 401.864, 799.048 409.745 C 797.096 411.530, 795.163 412.993, 794.750 412.995 C 794.337 412.998, 794 413.727, 794 414.617 C 794 415.816, 794.580 416.068, 796.250 415.593 C 798.403 414.980, 811.491 412.036, 821 410.025 C 823.475 409.501, 828.200 408.617, 831.500 408.060 C 840.657 406.515, 883.653 399.194, 891 397.929 C 901.771 396.075, 909.040 393.124, 908.967 390.635 C 908.949 390.011, 905.080 384.325, 900.369 378 C 895.659 371.675, 890.632 364.475, 889.197 362 C 883.050 351.391, 877.926 344.005, 876.757 344.067 C 876.065 344.104, 871.156 347.817, 865.848 352.317  M 408.153 348.231 C 404.940 350.215, 395.558 354.325, 385.946 357.962 C 379.601 360.362, 372 366.757, 372 369.696 C 372 370.468, 371.287 372.479, 370.415 374.165 C 368.074 378.692, 369.646 379.534, 376.650 377.505 C 384.989 375.088, 391.913 371.622, 396.862 367.386 C 401.383 363.516, 414 348.434, 414 346.900 C 414 345.483, 411.791 345.986, 408.153 348.231  M 852 350.422 C 848.425 352.272, 828.175 362.427, 807 372.989 C 763.090 394.892, 742.933 405.384, 740.095 407.814 C 738.139 409.489, 738.142 409.578, 740.530 421 C 741.853 427.325, 742.950 434.863, 742.967 437.750 C 742.995 442.269, 743.270 443, 744.941 443 C 746.009 443, 747.122 442.612, 747.415 442.138 C 747.955 441.263, 756.792 434.373, 774 421.408 C 779.225 417.472, 784.850 412.980, 786.500 411.426 C 788.150 409.873, 795.575 403.432, 803 397.112 C 810.425 390.793, 822.532 380.421, 829.904 374.062 C 846.710 359.566, 850.696 356.250, 855.827 352.500 C 860.105 349.373, 861.808 346.979, 859.719 347.029 C 859.048 347.045, 855.575 348.572, 852 350.422  M 698 353.927 C 693.325 354.881, 686.125 356.243, 682 356.954 C 677.875 357.665, 671.125 359.040, 667 360.010 C 662.875 360.980, 657.475 362.104, 655 362.509 C 652.525 362.914, 650.275 363.597, 650 364.026 C 649.725 364.456, 649.656 367.097, 649.846 369.894 C 650.189 374.940, 650.258 375.034, 658.346 381.485 C 662.831 385.062, 667.011 387.991, 667.635 387.994 C 669.942 388.006, 711.867 360.511, 712.648 358.474 C 712.960 357.661, 712.934 355.872, 712.589 354.498 C 711.834 351.491, 710.242 351.429, 698 353.927  M 609.907 362.426 C 608.361 363.972, 550.183 368.709, 530.128 368.922 C 521.042 369.018, 521.348 369.629, 534.317 377.293 C 539.368 380.278, 547.650 385.258, 552.723 388.360 C 557.796 391.462, 562.805 394, 563.856 394 C 564.906 394, 571.555 391.237, 578.633 387.861 C 593.897 380.578, 608.060 373.892, 620.716 367.995 C 625.785 365.633, 629.696 363.318, 629.407 362.850 C 628.885 362.006, 610.723 361.611, 609.907 362.426  M 497.077 368.783 C 488.750 373.920, 477.679 383.923, 472.618 390.883 C 467.776 397.541, 461.702 409.766, 461.703 412.852 C 461.704 414.309, 462.431 421.125, 463.321 428 C 464.210 434.875, 465.206 443.062, 465.534 446.194 C 466.313 453.633, 467.778 452.995, 471.180 443.735 C 472.642 439.756, 476.180 431.325, 479.041 425 C 481.903 418.675, 486.817 407.650, 489.961 400.500 C 494.716 389.688, 500.475 377.611, 505.093 368.764 C 506.192 366.659, 506.283 363.962, 505.250 364.101 C 504.837 364.157, 501.159 366.264, 497.077 368.783  M 714.497 365.005 C 713.659 366.361, 682.271 387, 681.047 387 C 680.471 387, 680 387.643, 680 388.429 C 680 390.109, 685.370 391.733, 708.100 396.926 C 720.026 399.651, 726.614 400.433, 727.369 399.213 C 728.002 398.187, 724.994 386.781, 720.412 372.837 C 718.076 365.727, 715.862 362.796, 714.497 365.005  M 627 371.885 C 620.125 375.087, 609.325 380.209, 603 383.267 C 596.675 386.325, 587.020 390.830, 581.545 393.278 C 576.070 395.725, 571.433 398.201, 571.240 398.779 C 571.048 399.357, 571.887 400.147, 573.106 400.534 C 574.326 400.921, 579.413 403.146, 584.411 405.479 C 589.410 407.813, 595.975 410.856, 599 412.243 C 602.025 413.630, 608.055 416.434, 612.400 418.475 C 621.651 422.818, 623.167 422.555, 627.747 415.813 C 632.791 408.388, 640.989 386.084, 642.435 375.855 C 643.179 370.590, 642.338 365.985, 640.642 366.031 C 640.014 366.048, 633.875 368.683, 627 371.885  M 396.500 377.090 C 394.300 378.700, 387.550 382.004, 381.500 384.432 C 375.450 386.859, 370.368 389.484, 370.207 390.264 C 370.046 391.044, 373.313 397.619, 377.466 404.875 C 381.619 412.130, 387.438 422.889, 390.398 428.783 C 393.357 434.678, 398.503 444.450, 401.834 450.500 C 405.164 456.550, 408.603 462.798, 409.476 464.385 C 410.348 465.972, 411.279 467.054, 411.545 466.789 C 411.810 466.524, 411.385 461.175, 410.600 454.903 C 409.815 448.631, 408.885 440.125, 408.532 436 C 408.180 431.875, 407.047 420.625, 406.014 411 C 404.980 401.375, 403.826 389.113, 403.449 383.750 C 403.008 377.486, 402.358 374.029, 401.631 374.081 C 401.009 374.126, 398.700 375.480, 396.500 377.090  M 515.512 374.981 C 515.179 375.520, 515.183 380.583, 515.523 386.231 C 516.180 397.176, 521.597 420.908, 523.615 421.683 C 524.235 421.920, 529.412 418.698, 535.121 414.522 C 540.829 410.346, 547.862 405.327, 550.750 403.368 C 553.638 401.408, 556 399.642, 556 399.442 C 556 398.452, 550.906 394.534, 546 391.751 C 542.975 390.035, 535.491 385.339, 529.370 381.315 C 518.092 373.904, 516.599 373.221, 515.512 374.981  M 646.910 383.250 C 646.266 385.587, 644.223 392.125, 642.370 397.777 C 638.735 408.864, 638.375 411, 640.142 411 C 642.063 411, 661.927 394.601, 661.945 393 C 661.963 391.421, 650.428 379, 648.944 379 C 648.469 379, 647.554 380.913, 646.910 383.250  M 503.071 388.278 C 499.972 395.710, 497.294 401.601, 487.742 422 C 486.067 425.575, 483.246 432.100, 481.472 436.500 C 479.698 440.900, 477.066 446.947, 475.623 449.937 C 472.849 455.687, 472.376 458, 473.973 458 C 475.007 458, 502.743 437.851, 514.613 428.476 L 517.176 426.452 515.083 420.496 C 512.260 412.463, 510.022 400.217, 509.900 392.140 C 509.791 384.828, 508.962 380.806, 507.472 380.352 C 506.938 380.189, 504.957 383.755, 503.071 388.278  M 666 398.139 C 655.853 404.321, 638 420.045, 638 422.801 C 638 423.745, 638.838 423.996, 640.750 423.626 C 642.263 423.333, 648.450 422.178, 654.500 421.060 C 670.771 418.054, 675.421 417.042, 687 413.990 C 692.775 412.467, 699.975 410.664, 703 409.982 C 716.066 407.036, 719.944 404.794, 713 404.201 C 708.523 403.819, 678.224 398.211, 673.839 396.954 C 669.582 395.733, 670.072 395.659, 666 398.139  M 554.601 433.750 C 544.711 462.752, 543.007 468.577, 544.618 467.865 C 547.021 466.804, 572.137 454.592, 576.500 452.363 C 579.250 450.958, 586.450 447.354, 592.500 444.355 C 598.550 441.355, 606.425 437.444, 610 435.663 C 620.189 430.587, 619.747 429.551, 603.996 421.611 C 596.783 417.975, 590.493 415, 590.018 415 C 589.543 415, 584.360 412.750, 578.500 410 C 572.640 407.250, 567.072 405, 566.125 405 C 564.766 405, 562.351 411.025, 554.601 433.750  M 879 406.604 C 874.875 407.367, 865.650 408.909, 858.500 410.030 C 851.350 411.151, 843.475 412.442, 841 412.899 C 836.350 413.757, 803.633 419.207, 791.783 421.098 C 786.980 421.864, 783.845 423.059, 780.783 425.292 C 773.865 430.336, 757.006 441.891, 750.250 446.219 C 741.234 451.996, 741.432 452.317, 755 453.925 C 764.514 455.053, 776.443 457.283, 793.732 461.165 L 802.963 463.238 809.732 458.758 C 821.742 450.809, 840.564 438.681, 852.035 431.500 C 865.291 423.202, 887.291 408.785, 888 407.931 C 888.275 407.600, 889.400 406.819, 890.500 406.195 C 892.322 405.162, 892.233 405.068, 889.500 405.139 C 887.850 405.181, 883.125 405.841, 879 406.604  M 369.491 408.014 C 369.147 408.571, 369.117 412.509, 369.425 416.764 C 369.734 421.019, 370.441 445.650, 370.997 471.500 C 372.690 550.236, 373.058 559.386, 374.464 557.851 C 375.484 556.736, 385.951 535.348, 402.040 501.500 C 407.255 490.529, 410 483.771, 410 481.905 C 410 480.890, 407.502 475.433, 404.448 469.780 C 401.395 464.126, 397.371 456.269, 395.506 452.321 C 393.641 448.372, 389.038 439.597, 385.277 432.821 C 381.517 426.044, 376.924 417.462, 375.070 413.750 C 371.743 407.085, 370.717 406.030, 369.491 408.014  M 550.496 411.269 C 540.359 417.951, 526 429.200, 526 430.459 C 526 431.173, 527.515 434.273, 529.366 437.347 C 531.217 440.421, 533.776 446.550, 535.052 450.968 C 536.329 455.386, 537.854 459, 538.442 459 C 539.030 459, 539.999 457.538, 540.596 455.750 C 541.193 453.962, 544.933 442.918, 548.909 431.206 C 552.884 419.494, 555.992 409.476, 555.814 408.943 C 555.637 408.411, 553.244 409.457, 550.496 411.269  M 719.500 413.509 C 714.550 414.786, 708.025 416.490, 705 417.297 C 701.975 418.103, 696.350 419.338, 692.500 420.041 C 688.650 420.744, 680.775 422.376, 675 423.667 C 669.225 424.958, 660.900 426.701, 656.500 427.541 C 642.009 430.308, 638 431.309, 638 432.160 C 638 432.622, 640.215 433, 642.922 433 C 648.743 433, 664.648 435.524, 693.500 441.028 C 705.050 443.231, 717.997 445.701, 722.270 446.517 C 726.544 447.333, 730.862 448, 731.865 448 C 734.508 448, 737.002 444.798, 736.990 441.421 C 736.976 437.725, 732.546 413.693, 731.594 412.152 C 730.686 410.683, 730.285 410.728, 719.500 413.509  M 946.500 426.203 C 945.400 426.832, 943.846 428.281, 943.047 429.423 C 939.807 434.055, 926.673 446.806, 923.207 448.684 C 911.085 455.252, 903.626 460.293, 904.595 461.262 C 904.908 461.575, 907.490 460.749, 910.332 459.426 C 916.339 456.629, 917.908 456.476, 920.559 458.433 C 922.115 459.581, 922.252 460.117, 921.250 461.133 C 919.346 463.063, 919.611 463.459, 925.066 466.851 C 931.039 470.563, 931 470.555, 931 468.047 C 931 465.406, 929.038 460.977, 926.683 458.301 L 924.748 456.103 929.494 453.301 C 932.104 451.761, 936.323 448.789, 938.870 446.698 C 941.416 444.606, 947.438 439.720, 952.250 435.839 C 957.063 431.958, 961 428.435, 961 428.010 C 961 427.161, 953.182 424.982, 950.307 425.030 C 949.313 425.047, 947.600 425.575, 946.500 426.203  M 964.696 434.883 C 963.259 437.054, 960.040 440.539, 957.542 442.627 C 953.874 445.693, 953 447.045, 953 449.653 C 953 451.429, 953.498 453.190, 954.107 453.566 C 955.664 454.528, 952.974 456.102, 950.882 455.452 C 945.469 453.770, 935.909 456.189, 934.612 459.568 C 934.372 460.195, 935.900 464.711, 938.007 469.604 C 940.920 476.365, 942.249 478.423, 943.546 478.177 C 944.484 478, 947.782 475.869, 950.876 473.442 C 953.969 471.015, 959.152 467.009, 962.394 464.539 C 967.303 460.799, 967.971 459.945, 966.394 459.433 C 963.056 458.350, 959.989 456.678, 960.465 456.201 C 960.720 455.947, 964.657 455.172, 969.214 454.479 C 978.015 453.142, 983 451.594, 983 450.199 C 983 448.692, 978.639 445.290, 973.250 442.593 C 968.599 440.266, 966.156 437, 969.066 437 C 970.450 437, 969.842 431.766, 968.404 431.295 C 967.801 431.098, 966.133 432.712, 964.696 434.883  M 516.821 435.305 C 516.095 436.023, 512.575 438.579, 509 440.985 C 505.425 443.391, 500.186 447.191, 497.357 449.430 C 494.528 451.668, 488.792 455.975, 484.611 459 C 480.430 462.025, 477.007 465.011, 477.004 465.636 C 476.998 467.264, 482.503 467.856, 508.883 469.064 C 522.980 469.709, 532.628 469.772, 533.179 469.221 C 534.248 468.152, 529.198 451.666, 524.851 442.039 C 521.262 434.088, 519.527 432.634, 516.821 435.305  M 626.424 439.750 C 624.780 442.253, 623.897 444.865, 619.424 460.468 C 617.220 468.157, 617.460 495.075, 619.788 501.204 C 622.080 507.240, 622.318 507.433, 625.895 506.186 C 628.770 505.184, 628.999 505.323, 631.489 509.571 C 632.916 512.007, 634.377 514, 634.736 514 C 636.929 514, 652 508.653, 652 507.875 C 652 507.354, 647.612 502.788, 642.250 497.729 C 624.308 480.802, 622.936 479.330, 623.566 477.689 C 623.931 476.738, 624.818 476.362, 625.833 476.729 C 628.901 477.839, 638.702 485.904, 656.240 501.750 C 660.045 505.188, 663.685 507.984, 664.329 507.965 C 664.973 507.946, 670.675 503.439, 677 497.950 C 683.325 492.461, 694.125 483.394, 701 477.802 C 716.694 465.037, 727 456.016, 727 455.045 C 727 454.633, 722.163 453.365, 716.250 452.229 C 693.736 447.901, 667.063 442.911, 656 440.958 C 649.675 439.842, 642.328 438.494, 639.674 437.964 C 631.296 436.291, 628.443 436.675, 626.424 439.750  M 609 443.414 C 605.425 445.259, 590.575 452.536, 576 459.584 C 561.425 466.632, 548.886 472.940, 548.134 473.601 C 546.430 475.101, 546.484 475.135, 567.494 486.009 C 576.290 490.562, 584.165 494.650, 584.994 495.094 C 585.822 495.537, 590.550 497.818, 595.500 500.162 C 600.450 502.506, 607.200 505.950, 610.500 507.816 C 622.191 514.427, 624.152 513.763, 617.077 505.589 C 612.032 499.760, 611.034 494.949, 610.734 475 C 610.507 459.952, 610.586 459.281, 613.437 452 C 615.052 447.875, 616.778 443.957, 617.273 443.294 C 618.177 442.081, 617.479 439.975, 616.191 440.029 C 615.811 440.045, 612.575 441.568, 609 443.414  M 745.015 459.750 C 745.023 460.712, 745.656 463.300, 746.422 465.500 C 747.189 467.700, 749.001 474, 750.449 479.500 C 751.898 485, 754.429 494, 756.074 499.500 C 757.719 505, 759.491 511.075, 760.012 513 C 760.533 514.925, 761.871 519.875, 762.985 524 C 769.584 548.433, 770.283 550.095, 771.983 545.413 C 772.565 543.811, 773.432 541.600, 773.909 540.500 C 774.386 539.400, 776.010 535.575, 777.517 532 C 781.152 523.377, 783.394 518.377, 788.725 507 C 791.174 501.775, 795.118 492.972, 797.490 487.437 C 799.862 481.902, 802.745 475.827, 803.897 473.937 C 806.562 469.565, 806.540 468.626, 803.789 469.345 C 802.573 469.663, 796.161 468.554, 789.539 466.881 C 777.347 463.800, 749.233 458, 746.493 458 C 745.672 458, 745.007 458.788, 745.015 459.750  M 868 460.608 C 858.925 461.266, 847.450 462.102, 842.500 462.465 C 828.635 463.484, 827.443 463.935, 834 465.686 C 837.825 466.708, 842.088 466.983, 848 466.592 C 852.675 466.282, 861.382 465.939, 867.348 465.829 C 876.451 465.661, 878.931 465.256, 882.767 463.314 C 885.282 462.041, 888.639 461, 890.228 461 C 891.818 461, 892.857 460.578, 892.539 460.063 C 891.864 458.970, 890.016 459.011, 868 460.608  M 731.245 476.250 C 727.907 482.988, 723.385 492.550, 721.197 497.500 C 719.009 502.450, 715.318 510.550, 712.995 515.500 C 708.106 525.921, 690.636 564.453, 686.473 574 C 684.914 577.575, 683.309 580.950, 682.906 581.500 C 682.080 582.627, 673 603.701, 673 604.491 C 673 604.771, 673.840 605, 674.867 605 C 676.797 605, 679.238 604.109, 699.500 596.004 C 718.291 588.487, 736.231 581.541, 752 575.675 L 766.500 570.282 766.824 566.413 C 767.002 564.285, 766.158 558.934, 764.947 554.522 C 759.581 534.964, 756.742 525.119, 754.994 520 C 753.961 516.975, 750.813 506.400, 747.999 496.500 C 745.185 486.600, 742.488 477.150, 742.006 475.500 C 741.524 473.850, 740.632 470.587, 740.024 468.250 C 739.417 465.913, 738.558 464, 738.117 464 C 737.675 464, 734.583 469.512, 731.245 476.250  M 709 479.618 C 699.375 487.607, 689.953 495.349, 688.062 496.822 C 683.504 500.373, 677.503 505.561, 672.086 510.633 C 666.804 515.579, 666.426 517.355, 665.413 542 C 664.732 558.564, 666.316 591.956, 667.919 594.821 C 668.765 596.331, 669.518 594.966, 677.934 576.651 C 680.170 571.784, 682 567.558, 682 567.260 C 682 566.962, 684.200 562.170, 686.890 556.609 C 689.579 551.049, 696.351 536.375, 701.937 524 C 707.523 511.625, 713.616 498.350, 715.476 494.500 C 721.396 482.245, 728.082 467.767, 728.295 466.741 C 728.913 463.755, 724.822 466.486, 709 479.618  M 909.177 466.686 C 906.800 467.527, 904.649 468.750, 904.398 469.405 C 904.147 470.059, 907.780 482.173, 912.471 496.325 C 917.162 510.477, 921 522.691, 921 523.469 C 921 524.246, 921.417 525.140, 921.927 525.455 C 922.437 525.770, 923.963 522.534, 925.320 518.264 C 928.049 509.671, 930.897 502.284, 934.610 494.165 L 937.066 488.796 933.136 484.532 C 927.190 478.081, 923.681 472.327, 924.285 470.018 C 924.692 468.460, 924.321 467.993, 922.656 467.968 C 921.470 467.951, 919.626 467.276, 918.559 466.468 C 916.196 464.681, 914.753 464.715, 909.177 466.686  M 877.278 467.527 C 874.956 468.259, 865.281 469.365, 855.778 469.985 C 839.321 471.059, 833.123 470.761, 822.750 468.394 C 820.759 467.940, 820 468.154, 820 469.169 C 820 471.064, 842.716 499.415, 844.564 499.826 C 845.800 500.101, 861.943 488.277, 868.500 482.294 C 869.600 481.290, 871.811 479.453, 873.413 478.212 C 879.165 473.757, 886 467.550, 886 466.783 C 886 465.659, 882.171 465.986, 877.278 467.527  M 890.865 473.218 C 883.926 478.643, 857.437 499.852, 854.083 502.670 L 851.500 504.839 854 505.804 C 855.375 506.335, 861.225 508.770, 867 511.216 C 872.775 513.662, 882.450 517.582, 888.500 519.928 C 894.550 522.273, 902.541 525.499, 906.259 527.096 C 912.977 529.982, 916 530.659, 916 529.278 C 916 528.880, 912.210 516.843, 907.578 502.528 C 902.946 488.212, 898.861 475.043, 898.501 473.261 C 898.141 471.480, 897.483 469.798, 897.038 469.524 C 896.594 469.249, 893.816 470.912, 890.865 473.218  M 471.690 471.709 C 471.204 472.512, 472.175 477.715, 480.388 518.287 C 482.924 530.820, 485 541.931, 485 542.978 C 485 547.839, 487.772 544.906, 497.746 529.493 C 526.943 484.373, 530.229 479.040, 529.695 477.646 C 529.350 476.750, 522.890 476.053, 506.857 475.183 C 487.153 474.114, 480.070 473.307, 473.834 471.422 C 472.918 471.145, 471.953 471.274, 471.690 471.709  M 799.494 500.245 C 792.460 515.785, 785.399 531.120, 783.802 534.322 C 780.811 540.319, 775.979 557.505, 776.027 561.977 L 776.053 564.500 777.652 562 C 778.531 560.625, 781.641 557.475, 784.564 555 C 787.486 552.525, 794.755 546, 800.716 540.500 C 806.677 535, 814.017 528.303, 817.027 525.618 C 827.805 516.003, 838 505.961, 838 504.961 C 838 504.401, 835.829 501.143, 833.176 497.721 C 830.523 494.300, 825.375 487.640, 821.735 482.921 C 818.095 478.203, 814.480 473.813, 813.700 473.166 C 812.519 472.186, 810.156 476.690, 799.494 500.245  M 544 482.806 C 544 483.249, 544.861 486.287, 545.914 489.556 C 546.966 492.825, 549.944 502.700, 552.531 511.500 C 555.118 520.300, 560.782 538.937, 565.117 552.916 C 569.453 566.894, 573 578.846, 573 579.475 C 573 580.103, 573.596 581.433, 574.325 582.429 C 575.529 584.076, 576.371 583.251, 583.575 573.376 C 587.934 567.401, 593.243 559.809, 595.374 556.506 C 597.504 553.203, 601.360 547.800, 603.941 544.500 C 611.368 535.007, 619.884 521.859, 619.404 520.627 C 619.014 519.625, 612.110 515.096, 609.500 514.130 C 606.734 513.106, 548.367 483.690, 547.550 482.909 C 546.374 481.784, 544 481.715, 544 482.806  M 530.267 490.815 C 527.568 495.042, 523.853 500.975, 522.012 504 C 520.171 507.025, 513.862 516.925, 507.993 526 C 491.548 551.426, 489 555.552, 489 556.752 C 489 557.364, 490.012 558.164, 491.250 558.530 C 498.716 560.734, 539.889 576.255, 549.500 580.488 C 563.241 586.540, 568 588.036, 568 586.303 C 568 585.325, 556.335 546.372, 546.926 515.932 C 542.579 501.870, 538.742 488.961, 538.399 487.246 C 537.320 481.852, 535.472 482.664, 530.267 490.815  M 1001.452 490.530 L 997.578 498.059 1004.039 504.525 C 1010.066 510.557, 1018.508 516, 1021.836 516 C 1022.630 516, 1023.784 516.690, 1024.402 517.534 C 1025.376 518.867, 1025.778 518.883, 1027.456 517.656 C 1029.296 516.310, 1029.308 516.118, 1027.689 513.648 C 1026.754 512.222, 1025.350 508.314, 1024.569 504.965 C 1023.788 501.616, 1022.428 497.777, 1021.549 496.434 C 1018.645 492.002, 1008.990 483, 1007.141 483 C 1005.891 483, 1004.120 485.344, 1001.452 490.530  M 414.116 491.250 C 413.362 493.038, 409.245 501.700, 404.969 510.500 C 400.693 519.300, 395.621 529.875, 393.699 534 C 391.777 538.125, 387.233 547.691, 383.602 555.257 C 379.971 562.823, 377 569.412, 377 569.900 C 377 571.728, 379.836 571.619, 392 569.324 C 413.916 565.190, 447.341 560.360, 468.425 558.281 C 472.784 557.852, 476.494 557.050, 476.671 556.500 C 476.954 555.616, 458.878 534.290, 446.135 520.474 C 434.613 507.982, 430.042 502.953, 423.647 495.735 C 419.878 491.481, 416.500 488, 416.141 488 C 415.782 488, 414.871 489.462, 414.116 491.250  M 988 503.988 C 985.525 504.967, 983.516 506.157, 983.535 506.634 C 983.670 509.959, 985.406 518.835, 986.228 520.394 C 987.140 522.127, 988.044 522.232, 996.862 521.628 C 1007.857 520.876, 1012 520.135, 1012 518.921 C 1012 518.455, 1009.401 516.309, 1006.224 514.152 C 1003.047 511.994, 998.938 508.378, 997.093 506.115 C 995.249 503.852, 993.461 502.047, 993.120 502.104 C 992.779 502.161, 990.475 503.008, 988 503.988  M 945.623 505.714 C 944.590 505.979, 941.440 507.468, 938.623 509.022 C 933.614 511.786, 933.439 512.038, 930.769 520.392 C 929.267 525.091, 928.274 529.550, 928.562 530.302 C 928.851 531.053, 931.655 532.715, 934.793 533.994 C 937.932 535.274, 941.625 537.091, 943 538.034 C 944.375 538.976, 948.425 541.213, 952 543.006 C 955.575 544.799, 962.832 549.090, 968.126 552.543 C 979.738 560.116, 983.765 562.263, 984.964 561.523 C 987.322 560.065, 980.888 542.662, 977.512 541.366 C 976.734 541.068, 973.764 537.376, 970.910 533.162 C 965.269 524.831, 954.815 511.067, 951.295 507.336 C 949.036 504.942, 948.844 504.887, 945.623 505.714  M 965.250 505.711 C 962.913 505.933, 961 506.535, 961 507.048 C 961 508.748, 975.960 529.892, 977.211 529.961 C 978.500 530.032, 979.868 522.643, 980.166 514 L 980.460 505.500 974.980 505.404 C 971.966 505.350, 967.587 505.489, 965.250 505.711  M 650 513.544 C 633.800 518.208, 631.819 519.295, 626.229 526.588 C 620.371 534.230, 611 547.764, 611 548.583 C 611 549.114, 603.547 559.150, 595.997 568.785 C 589.386 577.222, 591.903 577.018, 600.610 568.411 C 608.613 560.500, 614.931 554.539, 629.005 541.620 C 642.690 529.059, 657 514.570, 657 513.276 C 657 511.773, 656.020 511.811, 650 513.544  M 834.893 517.280 C 831.809 520.151, 822.113 529.250, 813.345 537.500 C 804.577 545.750, 792.813 556.544, 787.202 561.486 C 781.591 566.428, 777 570.933, 777 571.496 C 777 572.058, 778.013 573.134, 779.250 573.886 C 781.940 575.521, 801.285 589.210, 802 589.985 C 802.275 590.283, 804.975 592.128, 808 594.084 C 811.025 596.041, 818.857 601.177, 825.404 605.499 C 841.769 616.301, 847.212 618.444, 858 618.330 C 862.675 618.281, 869.786 617.909, 873.803 617.504 C 879.970 616.883, 881.350 616.395, 882.680 614.366 C 885.764 609.659, 882.524 594.862, 874.499 577 C 866.011 558.110, 842.907 512.495, 841.717 512.280 C 841.048 512.159, 837.977 514.409, 834.893 517.280  M 852 514.573 C 852 515.438, 857.682 527.475, 864.627 541.323 C 877.266 566.524, 884.311 582.927, 887.625 594.867 C 889.393 601.233, 889.393 601.233, 891.196 599.006 C 892.188 597.781, 893 596.218, 893 595.534 C 893 594.849, 895.072 589.612, 897.605 583.895 C 911.687 552.107, 916.989 539.414, 916.604 538.409 C 916.367 537.792, 913.771 536.527, 910.836 535.598 C 903.943 533.417, 896.085 530.369, 888.225 526.827 C 884.774 525.272, 881.505 524, 880.961 524 C 880.418 524, 879.191 523.592, 878.236 523.093 C 875.057 521.431, 853.541 513, 852.480 513 C 852.216 513, 852 513.708, 852 514.573  M 656.380 524.382 C 647.014 533.743, 612.161 565.630, 605 571.391 C 597.191 577.673, 582 592.235, 582 593.438 C 582 594.274, 584.721 595.148, 589.750 595.930 C 594.013 596.592, 604.700 598.399, 613.500 599.946 C 622.300 601.493, 633.325 603.295, 638 603.950 C 642.675 604.606, 649.355 605.817, 652.845 606.642 C 661.839 608.767, 662.348 608.399, 661.681 600.237 C 659.563 574.296, 658.842 556.137, 659.321 540.770 C 659.625 531.018, 659.564 522.865, 659.187 522.652 C 658.809 522.438, 657.546 523.217, 656.380 524.382  M 928.663 540.670 C 928.294 541.039, 931.032 544.533, 934.746 548.436 C 938.461 552.338, 946.520 561.598, 952.656 569.015 C 958.791 576.432, 965.541 584.318, 967.656 586.541 C 969.770 588.763, 974.108 593.445, 977.295 596.945 C 980.620 600.597, 983.450 602.924, 983.935 602.405 C 984.400 601.907, 985.093 594.731, 985.475 586.458 L 986.171 571.415 975.967 565.028 C 961.528 555.991, 943.846 546, 942.289 546 C 941.563 546, 938.578 544.650, 935.654 543 C 929.895 539.750, 929.661 539.672, 928.663 540.670  M 920.975 544.565 C 920.439 545.976, 920 547.493, 920 547.937 C 920 548.380, 917.932 553.413, 915.405 559.122 C 912.877 564.830, 908.784 574.450, 906.309 580.500 C 903.834 586.550, 900.804 593.750, 899.576 596.500 C 894.947 606.863, 890.765 618.098, 891.327 618.661 C 891.648 618.981, 895.418 618.105, 899.705 616.713 C 918.586 610.581, 916.820 610.766, 949.072 611.551 C 965.394 611.949, 979.300 611.933, 979.975 611.516 C 980.822 610.992, 979.364 608.859, 975.269 604.629 C 972.006 601.258, 965.039 593.325, 959.786 587 C 954.534 580.675, 949.232 574.375, 948.005 573 C 946.777 571.625, 944.587 568.925, 943.137 567.001 C 941.686 565.076, 939.825 562.742, 939 561.814 C 938.175 560.887, 934.350 556.070, 930.500 551.110 C 926.650 546.151, 923.151 542.072, 922.725 542.047 C 922.299 542.021, 921.512 543.154, 920.975 544.565  M 451 566.555 C 446.875 567.271, 437.425 568.788, 430 569.926 C 422.575 571.064, 410.650 572.894, 403.500 573.994 C 396.350 575.093, 387.125 576.478, 383 577.071 C 378.875 577.665, 375.095 578.544, 374.600 579.025 C 373.314 580.276, 372.776 628.744, 374.040 629.525 C 374.592 629.866, 378.014 627.975, 381.645 625.322 C 390.474 618.872, 418.864 599.294, 443.769 582.481 C 454.917 574.954, 464.496 567.942, 465.054 566.898 C 465.973 565.182, 465.708 565.012, 462.285 565.126 C 460.203 565.195, 455.125 565.838, 451 566.555  M 473.493 569.568 C 470.747 571.484, 465.183 575.402, 461.128 578.276 C 457.074 581.149, 445.536 589.125, 435.489 596 C 425.443 602.875, 415.260 609.879, 412.861 611.565 C 410.463 613.251, 401.750 619.283, 393.500 624.970 C 385.250 630.657, 377.502 636.028, 376.281 636.905 C 374.243 638.370, 374.060 639.329, 374.031 648.714 C 373.998 659.694, 375.640 678.235, 376.936 681.500 C 377.372 682.600, 379.478 684.093, 381.615 684.816 C 383.752 685.540, 386.400 686.539, 387.500 687.037 C 391.011 688.625, 417.312 699.142, 422.500 701.033 C 434.341 705.347, 456.002 713.996, 460.976 716.396 C 469.444 720.481, 469.603 720.377, 470.341 710.250 C 471.277 697.416, 473.802 659.052, 474.999 639.500 C 475.571 630.150, 476.469 616.875, 476.995 610 C 477.521 603.125, 478.457 590.818, 479.075 582.650 C 479.701 574.395, 479.819 567.419, 479.343 566.943 C 478.866 566.466, 476.268 567.632, 473.493 569.568  M 493.540 566.935 C 493.176 567.524, 495.997 573.292, 499.809 579.753 C 503.621 586.214, 509.235 596.225, 512.285 602 C 518.970 614.659, 531.625 637.025, 532.725 638.125 C 533.897 639.297, 534.693 638.511, 544.517 626.500 C 557.854 610.192, 567.273 597.152, 566.731 595.744 C 566.467 595.060, 557.757 591.159, 547.376 587.077 C 529.470 580.034, 497.824 567.434, 495.351 566.362 C 494.719 566.088, 493.904 566.346, 493.540 566.935  M 485.996 572.128 C 485.990 574.073, 483.237 616.704, 482 634 C 481.429 641.975, 480.304 658.400, 479.500 670.500 C 478.695 682.600, 477.763 696.212, 477.429 700.750 C 477.034 706.100, 477.180 709, 477.843 709 C 478.405 709, 479.169 708.043, 479.540 706.874 C 480.340 704.353, 509.024 668.267, 520.190 655.733 C 524.485 650.912, 528 646.260, 528 645.396 C 528 643.694, 525.728 639.434, 510.985 613.500 C 502.747 599.008, 497.531 589.492, 490.351 575.855 C 488.509 572.358, 486.002 570.211, 485.996 572.128  M 767 576.302 C 765.625 576.901, 761.800 578.576, 758.500 580.025 C 752.539 582.642, 740.529 587.357, 730 591.213 C 726.975 592.321, 723.150 593.814, 721.500 594.530 C 719.850 595.246, 715.350 597.039, 711.500 598.515 C 694.754 604.934, 679.386 611.114, 678 611.985 C 675.477 613.571, 678.401 615.418, 692 620.830 C 698.875 623.566, 708.550 627.689, 713.500 629.993 C 718.450 632.296, 725.200 635.312, 728.500 636.694 C 731.800 638.076, 736.300 640.012, 738.500 640.995 C 740.700 641.979, 749.025 645.581, 757 649 C 771.531 655.230, 775.951 657.166, 785.774 661.609 C 788.675 662.921, 793.625 665.080, 796.774 666.407 C 799.923 667.733, 806.550 670.721, 811.500 673.045 C 829.061 681.291, 835.509 683.882, 836.360 683.036 C 836.838 682.560, 834.443 677.817, 830.958 672.340 C 823.520 660.652, 818.170 652.163, 806.793 634 C 790.587 608.127, 785.456 599.852, 778.712 588.712 C 770.469 575.098, 770.264 574.880, 767 576.302  M 787 589.567 C 787 589.878, 790.893 596.291, 795.651 603.817 C 800.409 611.342, 809.544 626.050, 815.952 636.500 C 830.606 660.399, 839.739 674, 841.133 674 C 841.755 674, 841.925 673.257, 841.534 672.250 C 841.159 671.288, 839.986 666, 838.926 660.500 C 837.866 655, 836.584 648.475, 836.076 646 C 834.640 638.996, 830.450 627.214, 826.558 619.239 C 823.460 612.891, 822.217 611.445, 816.668 607.739 C 813.178 605.408, 805.539 600.237, 799.694 596.250 C 789.936 589.593, 787 588.047, 787 589.567  M 350.641 622.036 C 336.165 651.499, 334.775 654.706, 336.330 655.055 C 337.262 655.264, 365.089 637.073, 366.235 635.505 C 367.310 634.034, 367.134 595.760, 366.044 594.036 C 365.362 592.959, 361.301 600.342, 350.641 622.036  M 578.667 600.667 C 578.300 601.033, 578 604.313, 578 607.955 C 578 611.597, 577.359 624.909, 576.576 637.538 C 575.793 650.167, 574.648 669.725, 574.033 681 C 573.418 692.275, 572.502 706.450, 571.997 712.500 C 570.163 734.502, 569.685 748, 570.740 748 C 571.303 748, 574.854 743.243, 578.632 737.428 C 582.409 731.614, 587.115 724.744, 589.089 722.161 C 591.063 719.579, 592.863 717.024, 593.089 716.483 C 593.497 715.508, 624.722 668.475, 633.243 656 C 643.433 641.083, 655.975 621.949, 657.516 618.968 C 658.426 617.209, 658.794 615.437, 658.335 615.031 C 657.465 614.260, 648.210 612.476, 627 608.991 C 603.991 605.209, 601.549 604.763, 590.810 602.376 C 578.611 599.665, 579.538 599.795, 578.667 600.667  M 562.401 614.666 C 558.606 619.433, 553.964 625.395, 552.086 627.916 C 550.208 630.437, 546.653 634.750, 544.186 637.500 C 536.573 645.986, 535.994 647.353, 537.690 652.819 C 540.417 661.603, 543.181 672.490, 544.973 681.500 C 547.572 694.564, 552.578 716.622, 556.207 731 C 557.942 737.875, 559.542 746.538, 559.763 750.250 C 560.034 754.804, 560.575 757, 561.425 757 C 562.364 757, 562.986 751.567, 563.856 735.750 C 564.500 724.063, 565.475 707.750, 566.024 699.500 C 566.573 691.250, 567.678 671.450, 568.479 655.500 C 569.280 639.550, 570.171 621.888, 570.458 616.250 C 570.746 610.612, 570.603 606, 570.142 606 C 569.680 606, 566.197 609.900, 562.401 614.666  M 911.291 618.879 C 906.227 619.780, 901.615 620.985, 901.042 621.558 C 900.322 622.278, 903.152 623.300, 910.251 624.883 C 923.559 627.849, 936.830 630.947, 956 635.562 C 977.557 640.752, 998.349 644.806, 999.287 644.001 C 999.720 643.630, 999.608 642.098, 999.037 640.598 C 998.467 639.097, 998 636.151, 998 634.051 C 998 630.873, 997.337 629.634, 994.045 626.660 C 986.839 620.150, 984.194 619.362, 965.372 618.125 C 942.286 616.609, 922.505 616.884, 911.291 618.879  M 833 619.482 C 833 619.876, 833.721 621.841, 834.602 623.849 C 837.668 630.836, 838.811 633.923, 840.029 638.500 C 842.709 648.576, 843.841 653.163, 844.966 658.500 C 845.661 661.800, 846.588 665.850, 847.025 667.500 C 847.462 669.150, 848.094 671.737, 848.429 673.250 C 849.640 678.716, 850.496 677.521, 864.011 651.500 C 870.216 639.553, 875.415 630.766, 879.465 625.379 C 881.258 622.994, 879.007 622.638, 870.738 624.002 C 859.189 625.906, 853.384 625.566, 844.880 622.489 C 836.050 619.294, 833 618.522, 833 619.482  M 659.719 627.750 C 654.778 635.676, 631.343 671.190, 623.920 682 C 618.793 689.467, 611.593 700.499, 609.291 704.412 C 608.627 705.542, 605.549 710.074, 602.453 714.484 C 599.357 718.893, 594.726 725.685, 592.162 729.577 C 589.598 733.470, 584.462 741.181, 580.750 746.713 C 574.085 756.645, 573.249 758.418, 574.782 759.365 C 575.558 759.845, 591.570 756.103, 606 752.070 C 610.125 750.917, 615.525 749.541, 618 749.012 C 622.470 748.056, 635.528 744.713, 641.750 742.931 C 650.696 740.368, 652.807 739.803, 656.500 738.980 C 658.700 738.490, 663.200 737.357, 666.500 736.463 C 680.339 732.713, 722.146 721.800, 727.214 720.615 C 730.556 719.833, 730.433 719.483, 722.593 707.500 C 719.354 702.550, 711.933 691.096, 706.102 682.046 C 700.271 672.996, 689.977 657.246, 683.226 647.046 C 676.475 636.846, 670.053 626.813, 668.955 624.750 C 667.858 622.688, 666.277 621, 665.443 621 C 664.610 621, 662.034 624.038, 659.719 627.750  M 675.592 621.851 C 675.302 622.320, 679.169 628.957, 684.185 636.601 C 694.035 651.614, 700.764 661.882, 720.360 691.797 C 727.312 702.411, 733 711.341, 733 711.643 C 733 711.944, 733.920 713.483, 735.044 715.062 C 737.351 718.301, 738.414 718.296, 750 714.983 C 753.575 713.961, 773.825 708.778, 795 703.466 C 816.175 698.153, 834.074 693.259, 834.776 692.591 C 835.794 691.622, 834.778 690.798, 829.776 688.530 C 826.324 686.964, 819.743 683.955, 815.151 681.842 C 810.559 679.729, 806.634 678, 806.430 678 C 806.226 678, 803.683 676.925, 800.780 675.612 C 797.876 674.299, 793.475 672.325, 791 671.226 C 788.525 670.127, 784.250 668.229, 781.500 667.008 C 778.750 665.788, 775.150 664.215, 773.500 663.513 C 765.880 660.273, 755.751 655.869, 724.247 642.102 C 715.308 638.196, 707.733 635, 707.413 635 C 706.796 635, 681.709 623.578, 678.764 621.956 C 676.634 620.783, 676.260 620.771, 675.592 621.851  M 882.742 632.160 C 880.800 635.647, 877.978 640.750, 876.472 643.500 C 874.965 646.250, 873.397 648.950, 872.987 649.500 C 872.577 650.050, 867.810 659.185, 862.393 669.800 C 854.887 684.510, 852.857 689.294, 853.861 689.914 C 854.586 690.362, 864.026 692.416, 874.839 694.478 C 895.670 698.451, 936.175 708.005, 974.900 718.079 C 1001.766 725.067, 1005.707 725.281, 1004.549 719.685 C 1004.186 717.933, 1003.577 702.507, 1003.195 685.403 C 1002.681 662.394, 1002.166 653.904, 1001.214 652.758 C 1000.507 651.906, 998.257 650.919, 996.214 650.564 C 991.820 649.800, 959.138 642.358, 936.448 636.954 C 927.620 634.852, 913.670 631.700, 905.448 629.951 C 897.227 628.201, 889.549 626.556, 888.387 626.295 C 886.644 625.903, 885.653 626.932, 882.742 632.160  M 353.485 652.288 C 337.189 663.448, 335 665.159, 335 666.734 C 335 668.241, 349.511 675.331, 355 676.506 C 356.925 676.918, 359.388 677.873, 360.473 678.628 C 364.461 681.402, 370.720 679.010, 369.585 675.145 C 369.319 674.240, 368.596 667.200, 367.977 659.500 C 367.358 651.800, 366.542 645.180, 366.163 644.788 C 365.785 644.396, 360.080 647.771, 353.485 652.288  M 1006.470 648.693 C 1006.851 650.725, 1007.494 655.485, 1007.899 659.271 C 1008.303 663.058, 1009.115 666.458, 1009.703 666.828 C 1011.539 667.983, 1013.343 687.695, 1013.423 707.500 L 1013.500 726.500 1020 728.147 C 1023.575 729.053, 1033.700 731.704, 1042.500 734.039 C 1062.664 739.389, 1065 739.753, 1065 737.547 C 1065 736.628, 1061.112 729.491, 1056.361 721.688 C 1051.609 713.885, 1045.913 704.350, 1043.702 700.500 C 1041.491 696.650, 1037.347 689.900, 1034.493 685.500 C 1031.638 681.100, 1027.159 673.900, 1024.538 669.500 C 1019.124 660.410, 1007.934 645.124, 1006.639 645.050 C 1006.165 645.022, 1006.089 646.662, 1006.470 648.693  M 529.443 655.765 C 528.332 656.537, 520.717 665.763, 507.376 682.500 C 497.181 695.290, 484.866 712.357, 482.121 717.498 L 479.987 721.496 482.743 722.321 C 485.767 723.226, 486.685 723.586, 495.500 727.316 C 498.800 728.712, 505.100 731.277, 509.500 733.016 C 524.699 739.023, 537.507 745.219, 544.452 749.924 C 552.414 755.319, 556.957 757.443, 558.097 756.303 C 558.866 755.534, 558.668 754.635, 557.403 753.158 C 554.078 749.274, 547.215 723.570, 537.470 678.500 C 532.273 654.461, 532.085 653.929, 529.443 655.765  M 337 678.268 C 337 679.053, 339.539 683.701, 342.641 688.597 C 345.744 693.494, 348.790 698.400, 349.409 699.500 C 350.028 700.600, 351.252 702.625, 352.130 704 C 353.007 705.375, 358.612 714.375, 364.585 724 C 374.417 739.843, 378 745.087, 378 743.633 C 378 743.353, 377.357 740.284, 376.572 736.812 C 375.787 733.340, 374.854 727.350, 374.500 723.500 C 373.725 715.076, 370.061 687.728, 369.654 687.320 C 369.495 687.161, 364.711 685.648, 359.023 683.959 C 353.335 682.269, 347.515 680.291, 346.091 679.564 C 341.646 677.294, 337 676.632, 337 678.268  M 331.033 688.250 C 331.051 689.487, 331.467 693.425, 331.957 697 C 334.093 712.575, 337.033 735.200, 338 743.500 C 338.576 748.450, 339.484 755.650, 340.018 759.500 C 341.888 772.983, 345.072 797.573, 345.975 805.500 C 347.227 816.484, 348.056 820.008, 349.375 819.956 C 349.994 819.931, 352.975 817.895, 356 815.431 C 359.025 812.968, 366 807.386, 371.500 803.028 C 389.391 788.853, 387.660 790.917, 386.210 785.494 C 385.515 782.898, 384.099 778.913, 383.063 776.638 C 382.026 774.362, 379.752 768.900, 378.010 764.500 C 371.948 749.195, 361.897 730.906, 348.082 710.043 C 344.737 704.991, 342 700.671, 342 700.442 C 342 700.214, 340.110 696.870, 337.799 693.013 C 333.560 685.935, 330.973 684.114, 331.033 688.250  M 377.370 694.750 C 377.670 696.813, 378.399 703.450, 378.989 709.500 C 379.579 715.550, 380.476 723.425, 380.982 727 C 381.488 730.575, 382.427 738.225, 383.070 744 C 384.730 758.927, 391.172 782.891, 393.756 783.752 C 394.364 783.955, 396.580 782.603, 398.681 780.748 C 400.781 778.894, 408.350 772.686, 415.500 766.953 C 422.650 761.220, 428.725 756.272, 429 755.957 C 429.275 755.642, 430.449 754.735, 431.609 753.942 C 432.769 753.149, 435.919 750.520, 438.609 748.100 C 441.299 745.680, 448.563 739.684, 454.750 734.776 C 465.544 726.214, 468.114 723, 464.167 723 C 463.158 723, 462.089 722.756, 461.791 722.458 C 461.493 722.159, 454.330 719.516, 445.874 716.584 C 437.418 713.652, 419.134 706.696, 405.241 701.127 C 391.349 695.557, 379.272 691, 378.404 691 C 377.148 691, 376.936 691.769, 377.370 694.750  M 825 702.643 C 812.313 706.226, 763.948 718.476, 752.500 721.006 C 747 722.222, 742.087 723.604, 741.581 724.077 C 741.034 724.590, 741.855 726.872, 743.611 729.719 C 745.233 732.348, 748.537 738.325, 750.953 743 C 753.369 747.675, 757.342 754.875, 759.783 759 C 762.223 763.125, 765.825 769.425, 767.788 773 C 778.478 792.468, 782.429 799, 783.500 798.973 C 784.394 798.950, 792.485 785.322, 803.359 765.526 C 822.311 731.021, 838 701.574, 838 700.507 C 838 699.517, 833.388 700.275, 825 702.643  M 864.684 700.650 C 863.896 701.438, 888.212 718.134, 966.277 770.408 C 983.449 781.907, 998.479 792.192, 999.676 793.263 C 1000.873 794.333, 1002.275 794.948, 1002.792 794.629 C 1004.281 793.708, 1005.469 734.270, 1004.032 732.539 C 1003.389 731.763, 1001.430 730.844, 999.681 730.497 C 997.931 730.150, 987.500 727.662, 976.500 724.968 C 926.502 712.726, 870.537 700, 866.699 700 C 865.948 700, 865.041 700.292, 864.684 700.650  M 897.831 788.175 C 920.808 833.921, 940.356 871.822, 941.271 872.399 C 943.102 873.554, 943.254 873.425, 950.794 864.309 C 953.156 861.453, 956.491 857.628, 958.205 855.809 C 959.919 853.989, 963.612 849.764, 966.411 846.419 C 969.210 843.075, 977.125 833.886, 984 826 C 990.875 818.113, 997.962 809.978, 999.750 807.921 C 1001.538 805.865, 1003 803.724, 1003 803.163 C 1003 802.603, 1000.188 800.454, 996.750 798.387 C 989.019 793.739, 955.202 771.284, 944.861 763.931 C 940.660 760.944, 934.585 756.846, 931.361 754.825 C 928.138 752.803, 917.625 745.737, 908 739.122 C 898.375 732.508, 887.800 725.245, 884.500 722.983 C 881.200 720.722, 874.025 715.750, 868.555 711.936 C 863.085 708.121, 858.034 705, 857.331 705 C 856.618 705, 874.527 741.780, 897.831 788.175  M 841.406 709.750 C 840.815 710.712, 838.394 715.100, 836.026 719.500 C 833.657 723.900, 831.395 727.950, 830.998 728.500 C 830.602 729.050, 827.209 735.350, 823.459 742.500 C 819.709 749.650, 812.823 762.250, 808.156 770.500 C 789.427 803.607, 787.487 807.664, 788.791 811 C 793.179 822.229, 801.394 841.851, 804.283 848 C 809.738 859.612, 812.834 866.680, 816.985 877 C 820.434 885.575, 836.582 921.965, 842.500 934.500 C 843.799 937.250, 846.282 943.100, 848.018 947.500 C 851.771 957.011, 852.975 958.797, 854.180 956.643 C 854.929 955.304, 853.977 926.063, 851.002 859 C 850.429 846.075, 849.512 825.375, 848.965 813 C 848.419 800.625, 847.539 781.500, 847.012 770.500 C 846.484 759.500, 845.803 744.200, 845.499 736.500 C 844.749 717.551, 843.964 708, 843.155 708 C 842.784 708, 841.997 708.788, 841.406 709.750  M 851.313 721.117 C 852.081 730.359, 854.958 793.886, 857.037 847.500 C 857.592 861.800, 858.687 887.450, 859.470 904.500 C 860.254 921.550, 861.169 941.800, 861.504 949.500 C 861.839 957.200, 862.465 963.855, 862.895 964.288 C 863.757 965.158, 866.505 962.249, 882 944.065 C 887.775 937.287, 899.025 924.323, 907 915.256 C 914.975 906.189, 922.850 897.061, 924.500 894.971 C 926.150 892.881, 929.413 888.842, 931.750 885.996 C 934.087 883.149, 936 880.400, 936 879.887 C 936 877.117, 853.660 714.720, 851.970 714.157 C 850.984 713.828, 850.837 715.384, 851.313 721.117  M 728.500 727.088 C 725.656 727.978, 712.100 731.547, 673.500 741.570 C 664.150 743.998, 649.975 747.727, 642 749.857 C 624.056 754.650, 610.778 758.073, 596.500 761.586 C 584 764.662, 581.660 765.564, 584 766.403 C 584.825 766.699, 595.625 768.773, 608 771.012 C 631.467 775.258, 693.201 787.173, 701 788.961 C 703.475 789.528, 712.700 791.377, 721.500 793.070 C 730.300 794.763, 745.284 797.689, 754.797 799.574 C 773.177 803.214, 776 803.547, 776 802.072 C 776 801.561, 774.488 798.524, 772.639 795.322 C 765.570 783.076, 745.798 747.737, 737.211 732 C 733.997 726.109, 733.152 725.633, 728.500 727.088  M 476.035 730.934 C 475.466 731.998, 475 733.550, 475 734.382 C 475 738.456, 467.938 754.512, 460.327 767.742 C 449.555 786.465, 447 794.139, 447 807.763 L 447 813.159 459.387 826.329 C 466.199 833.573, 473.737 841.798, 476.137 844.606 C 483.435 853.147, 483.531 853.159, 489.698 846.372 C 492.632 843.142, 500.290 834.425, 506.716 827 C 513.141 819.575, 521.822 809.675, 526.006 805 C 535.308 794.607, 557.313 768.939, 558.302 767.329 C 559.903 764.721, 524.661 746.096, 500 736.517 C 492.025 733.419, 484.466 730.461, 483.203 729.942 C 479.635 728.479, 477.166 728.821, 476.035 730.934  M 461.954 736.613 C 457.959 740.743, 449.375 748.002, 438.437 756.500 C 436.314 758.150, 429.159 764.001, 422.538 769.501 C 415.917 775.002, 407.462 781.943, 403.750 784.926 C 400.038 787.909, 397 790.959, 397 791.705 C 397 792.450, 398.176 795.854, 399.613 799.269 C 401.051 802.684, 403.514 808.970, 405.087 813.237 C 406.661 817.505, 408.819 822.910, 409.884 825.248 C 410.948 827.587, 413.701 834.225, 416 840 C 418.299 845.775, 421.040 852.388, 422.090 854.695 C 423.141 857.002, 424 859.184, 424 859.544 C 424 859.904, 424.624 861.616, 425.386 863.349 C 427.401 867.929, 430.672 876.748, 432.490 882.500 C 434.230 888.008, 435.633 890.701, 436.375 889.959 C 437.436 888.898, 439.135 855.341, 439.428 829.683 C 439.881 789.946, 439.670 790.764, 458.248 756.671 C 469.547 735.937, 471.185 727.070, 461.954 736.613  M 1012.583 734.866 C 1011.856 736.042, 1009.986 793.169, 1010.640 794.227 C 1011.298 795.291, 1014.908 792.176, 1033.500 774.509 C 1041.750 766.669, 1050.739 758.285, 1053.475 755.877 C 1063.402 747.143, 1063.589 746.903, 1061.586 745.439 C 1060.612 744.727, 1057.945 743.838, 1055.658 743.464 C 1053.371 743.090, 1043.625 740.807, 1034 738.392 C 1015.740 733.811, 1013.466 733.436, 1012.583 734.866  M 1058.791 759.604 C 1054.231 763.961, 1047.125 770.643, 1043 774.453 C 1023.948 792.051, 1014 802.372, 1014 804.543 C 1014 805.767, 1015.726 810.982, 1017.835 816.134 C 1019.945 821.285, 1023.127 829.325, 1024.906 834 C 1026.685 838.675, 1028.536 843.400, 1029.020 844.500 C 1029.504 845.600, 1032.677 853.925, 1036.071 863 C 1041.446 877.367, 1048.581 895.909, 1055.075 912.383 C 1056.134 915.069, 1057 917.827, 1057 918.511 C 1057 919.195, 1057.622 920.272, 1058.383 920.903 C 1060.513 922.671, 1061 920.220, 1061 907.725 C 1061 901.613, 1061.428 890.513, 1061.952 883.057 C 1062.475 875.600, 1063.380 858.250, 1063.961 844.500 C 1065.013 819.650, 1065.947 802.890, 1068.078 770.646 C 1068.860 758.821, 1068.878 753.478, 1068.137 752.737 C 1067.397 751.997, 1064.608 754.045, 1058.791 759.604  M 575.547 773.115 C 576.329 774.419, 599.372 805.408, 605.203 813 C 606.682 814.925, 616.804 828.487, 627.696 843.138 C 660.382 887.103, 663.905 891.806, 670.310 900.027 C 670.965 900.866, 673.509 904.466, 675.965 908.027 C 678.420 911.587, 682.868 917.650, 685.849 921.500 C 688.829 925.350, 693.345 931.382, 695.884 934.904 C 698.423 938.426, 706.056 948.776, 712.847 957.904 C 719.638 967.032, 726.163 976.184, 727.347 978.242 C 728.531 980.301, 730.193 981.988, 731.040 981.992 C 732.592 982, 733.253 979.903, 740.959 950.500 C 743.516 940.742, 746.307 930.669, 748.994 921.500 C 750.094 917.744, 756.103 895.722, 761 877.500 C 763.367 868.691, 765.583 860.599, 769.351 847 C 772.260 836.499, 776.124 822.473, 777.476 817.503 C 778.943 812.110, 778.233 810, 774.951 810 C 773.318 810, 757.788 807.102, 732 801.986 C 726.775 800.949, 715.525 798.759, 707 797.118 C 649.673 786.087, 638.062 783.829, 634.500 783.019 C 630.833 782.184, 621.532 780.329, 594.500 775.037 C 578.327 771.871, 574.571 771.491, 575.547 773.115  M 554.929 782.733 C 546.899 791.182, 534.651 804.880, 531.755 808.652 C 530.553 810.218, 529.328 811.725, 529.033 812 C 528.739 812.275, 525.573 815.868, 521.999 819.985 C 512.122 831.360, 509.790 834.002, 506.181 837.908 C 501.203 843.296, 490 857.663, 490 858.659 C 490 859.139, 498.663 868.356, 509.250 879.141 C 531.022 901.320, 554.209 925.757, 564.384 937.250 C 568.158 941.513, 571.912 945, 572.727 945 C 573.959 945, 574.109 943.695, 573.617 937.250 C 573.292 932.987, 572.562 921.850, 571.996 912.500 C 571.430 903.150, 570.533 889.200, 570.003 881.500 C 569.472 873.800, 568.553 859.850, 567.960 850.500 C 567.367 841.150, 566.007 823.150, 564.937 810.500 C 563.866 797.850, 562.986 785.475, 562.980 783 C 562.962 775.334, 561.993 775.301, 554.929 782.733  M 569.681 778.750 C 569.441 779.163, 570.053 789.850, 571.041 802.500 C 572.029 815.150, 573.550 835.850, 574.422 848.500 C 578.407 906.365, 580.923 943.428, 581.242 948.981 C 581.544 954.230, 579.726 953.424, 602.500 958.398 C 623.147 962.907, 649.210 968.918, 670 973.966 C 683.226 977.177, 701.850 981.610, 722.250 986.402 C 725.137 987.080, 724.277 984.865, 718.750 977.387 C 715.862 973.480, 707.425 962.019, 700 951.919 C 692.575 941.818, 679.075 923.576, 670 911.381 C 660.925 899.186, 650.350 884.832, 646.500 879.483 C 642.650 874.134, 637.378 866.999, 634.785 863.629 C 628.535 855.504, 593.035 807.965, 580.737 791.250 C 575.375 783.962, 570.792 778, 570.553 778 C 570.314 778, 569.921 778.337, 569.681 778.750  M 382 802.638 C 378.425 805.691, 371.225 811.689, 366 815.968 C 354.331 825.523, 351 828.615, 351 829.891 C 351 831.674, 356.256 836.520, 375.500 852.476 C 385.950 861.141, 396.743 870.091, 399.484 872.365 C 403.694 875.858, 413.318 884.316, 415 886.001 C 419.783 890.795, 430.177 899.009, 430.897 898.564 C 431.465 898.212, 431.513 896.864, 431.016 895.237 C 429.294 889.609, 424.196 876.296, 421.543 870.500 C 420.032 867.200, 417.696 861.575, 416.350 858 C 415.005 854.425, 412.312 847.675, 410.366 843 C 408.421 838.325, 406.466 833.600, 406.023 832.500 C 405.580 831.400, 402.758 824.425, 399.752 817 C 396.746 809.575, 393.717 802.038, 393.022 800.250 C 392.297 798.387, 391.062 797.019, 390.129 797.044 C 389.233 797.068, 385.575 799.586, 382 802.638  M 1001.461 815.288 C 994.800 823.060, 978.943 841.926, 977.027 844.360 C 973.197 849.225, 956.192 868.905, 950.820 874.690 C 948.169 877.545, 946 880.634, 946 881.555 C 946 883.560, 951.589 895.278, 970.060 932 C 977.667 947.125, 986.714 965.125, 990.163 972 C 993.612 978.875, 996.585 984.712, 996.771 984.971 C 998.123 986.856, 998.859 979.517, 999.413 958.625 C 999.766 945.356, 1000.479 924.600, 1000.999 912.500 C 1002.190 884.794, 1003.794 846.793, 1004.555 828.250 C 1005.025 816.806, 1004.881 814.007, 1003.820 814.038 C 1003.094 814.059, 1002.033 814.621, 1001.461 815.288  M 782.616 825.117 C 781.781 828.078, 779.912 834.550, 778.461 839.500 C 777.010 844.450, 775.449 849.850, 774.991 851.500 C 774.533 853.150, 772.969 858.775, 771.516 864 C 768.378 875.286, 766.133 883.383, 765.003 887.500 C 764.549 889.150, 762.324 897.700, 760.056 906.500 C 757.789 915.300, 755.271 924.750, 754.459 927.500 C 752.860 932.921, 746.746 955.125, 744.410 964 C 743.614 967.025, 742.567 970.625, 742.084 972 C 739.506 979.335, 737.917 986.057, 738.528 987.045 C 738.907 987.659, 740.237 987.906, 741.481 987.594 C 744.515 986.833, 770.531 983.420, 795.500 980.508 C 830.690 976.405, 850.460 973.873, 850.923 973.410 C 851.742 972.592, 848.293 963.699, 840.293 946 C 836.191 936.925, 832.251 928.150, 831.536 926.500 C 830.822 924.850, 829.557 921.925, 828.727 920 C 827.896 918.075, 826.042 913.899, 824.608 910.720 C 823.174 907.542, 822 904.740, 822 904.495 C 822 904.250, 820.718 901.226, 819.151 897.775 C 813.560 885.464, 805.977 868.271, 799.622 853.500 C 788.538 827.734, 785.766 821.528, 784.937 820.617 C 784.495 820.131, 783.451 822.156, 782.616 825.117  M 1010.649 826.082 C 1010.292 829.498, 1010 838.566, 1010 846.232 C 1010 853.899, 1009.575 868.795, 1009.056 879.336 C 1007.478 911.356, 1006.036 947.501, 1005.569 966.750 C 1005.194 982.157, 1005.349 985, 1006.563 985 C 1007.353 985, 1008 984.595, 1008 984.100 C 1008 983.605, 1017.033 975.167, 1028.073 965.350 C 1039.113 955.532, 1050.141 945.700, 1052.581 943.500 C 1055.039 941.284, 1057.011 938.608, 1057.005 937.500 C 1056.993 935.588, 1053.211 924.996, 1049.505 916.500 C 1048.546 914.300, 1046.044 907.775, 1043.945 902 C 1039.703 890.326, 1027.933 859.216, 1019.352 837 C 1012.350 818.871, 1011.513 817.820, 1010.649 826.082  M 446.701 824.337 C 446.419 825.072, 445.903 832.834, 445.555 841.587 C 445.206 850.339, 444.453 866.598, 443.881 877.717 C 443.309 888.836, 443.123 898.390, 443.467 898.947 C 443.812 899.504, 449.761 893.332, 456.688 885.230 C 463.615 877.129, 471.192 868.475, 473.526 866 C 480.429 858.679, 480.563 857.946, 475.841 853.406 C 473.606 851.258, 466.638 843.538, 460.357 836.250 C 454.076 828.962, 448.549 823, 448.075 823 C 447.602 823, 446.983 823.601, 446.701 824.337  M 483.373 864.843 C 482.852 865.204, 478.393 870.176, 473.463 875.890 C 455.939 896.204, 447 907.072, 447 908.065 C 447 909.558, 452.680 911.748, 483 921.943 C 512.917 932.003, 543.324 942.581, 546.500 944.033 C 551.443 946.293, 563.425 949.774, 564.647 949.305 C 566.165 948.723, 565.670 948.062, 553.795 934.816 C 543.095 922.880, 487.010 865.218, 485.559 864.661 C 484.877 864.399, 483.893 864.481, 483.373 864.843  M 936.401 891.236 C 934.741 893.031, 930.035 898.550, 925.944 903.500 C 921.852 908.450, 918.278 912.725, 918.002 913 C 916.586 914.410, 901.883 931.255, 890.508 944.500 C 883.422 952.750, 874.974 962.367, 871.733 965.871 C 868.493 969.375, 866.215 972.615, 866.671 973.070 C 867.127 973.526, 871.775 974.377, 877 974.961 C 882.225 975.545, 888.975 976.456, 892 976.985 C 903.722 979.035, 939.053 984.045, 963 987.055 C 971.525 988.126, 981.114 989.516, 984.308 990.143 C 988.052 990.878, 990.461 990.939, 991.085 990.315 C 991.708 989.692, 988.783 982.976, 982.855 971.424 C 977.796 961.566, 966.758 939.550, 958.325 922.500 C 949.892 905.450, 942.624 890.852, 942.174 890.060 C 940.779 887.601, 939.527 887.856, 936.401 891.236  M 458.248 922.250 C 458.476 922.938, 469.651 932.187, 483.081 942.804 C 506.669 961.451, 520.675 972.635, 527.321 978.128 C 535.852 985.182, 550.399 997.073, 556.523 1002 C 560.282 1005.025, 566.090 1009.772, 569.429 1012.550 C 580.885 1022.079, 588.769 1028, 590 1028 C 590.788 1028, 591.019 1027.188, 590.639 1025.750 C 589.547 1021.613, 583.123 993.620, 580.944 983.500 C 579.759 978, 578.387 972.195, 577.895 970.601 C 577.403 969.006, 577 966.488, 577 965.006 C 577 961.315, 574.766 959.705, 566 957.078 C 561.875 955.842, 551.300 952.321, 542.500 949.253 C 533.700 946.185, 518.850 941.086, 509.500 937.924 C 500.150 934.761, 485.387 929.659, 476.694 926.587 C 460.291 920.789, 457.549 920.144, 458.248 922.250  M 1046.876 957.793 C 1042.132 962.032, 1036.507 967, 1034.376 968.832 C 1032.244 970.665, 1027.775 974.715, 1024.445 977.832 C 1021.115 980.950, 1015.603 986.108, 1012.195 989.295 C 1008.075 993.149, 1006 995.860, 1006 997.391 C 1006 1000.308, 1007.625 1003.646, 1016.279 1018.500 C 1028.778 1039.953, 1029.933 1041.535, 1031.384 1039.188 C 1031.903 1038.348, 1037.567 1019.458, 1043.583 998.500 C 1045.478 991.900, 1049.101 979.300, 1051.635 970.500 C 1057.190 951.208, 1057.472 949.988, 1056.367 950.043 C 1055.890 950.066, 1051.619 953.554, 1046.876 957.793  M 583 963.179 C 583 963.827, 583.443 965.740, 583.985 967.429 C 584.527 969.118, 586.344 977.025, 588.022 985 C 595.638 1021.192, 598.367 1030.997, 600.828 1031.005 C 602.712 1031.012, 623.194 1024.543, 668 1009.792 C 684.775 1004.270, 702.550 998.423, 707.500 996.799 C 712.450 995.176, 716.883 993.476, 717.351 993.023 C 718.353 992.051, 717.366 991.719, 705.500 989.036 C 700.550 987.917, 692.675 986.103, 688 985.005 C 683.325 983.907, 676.125 982.302, 672 981.437 C 663.732 979.703, 651.774 976.947, 639.500 973.945 C 624.666 970.318, 586.555 962, 584.770 962 C 583.796 962, 583 962.531, 583 963.179  M 839 982.167 C 834.875 982.667, 820.700 984.426, 807.500 986.077 C 794.300 987.727, 779.675 989.495, 775 990.005 C 770.325 990.515, 761.584 991.623, 755.576 992.466 C 749.568 993.310, 744.280 994, 743.826 994 C 742.064 994, 743.154 996.430, 746.686 1000.379 C 756.218 1011.035, 767.135 1023.033, 773.573 1029.926 C 777.463 1034.092, 783.313 1040.455, 786.573 1044.066 C 789.833 1047.677, 796.577 1055.102, 801.561 1060.566 C 806.544 1066.030, 814.827 1075.225, 819.967 1081 C 837.342 1100.521, 844.483 1108, 845.744 1108 C 846.437 1108, 847.019 1106.768, 847.043 1105.250 C 847.089 1102.317, 847.416 1096.031, 849.008 1067.500 C 849.560 1057.600, 850.475 1041.175, 851.040 1031 C 851.606 1020.825, 852.523 1005.852, 853.078 997.726 C 853.634 989.600, 853.817 982.513, 853.485 981.976 C 852.790 980.850, 849.506 980.894, 839 982.167  M 869.383 983.556 C 870.250 985.814, 902.685 1027.956, 928.990 1061 C 935.338 1068.975, 943.138 1078.875, 946.322 1083 C 957.492 1097.471, 961.677 1102.500, 962.546 1102.500 C 964.019 1102.500, 965.666 1098.178, 970.548 1081.500 C 973.124 1072.700, 976.259 1062.350, 977.515 1058.500 C 978.771 1054.650, 981.231 1046.775, 982.983 1041 C 984.734 1035.225, 986.990 1028.025, 987.997 1025 C 992.178 1012.435, 995 1002.540, 995 1000.442 C 995 998.021, 996.524 998.344, 969 994.931 C 964.325 994.351, 958.250 993.487, 955.500 993.010 C 952.750 992.534, 946 991.625, 940.500 990.991 C 935 990.357, 924.875 988.997, 918 987.969 C 911.125 986.940, 901.900 985.611, 897.500 985.013 C 893.100 984.416, 886.488 983.494, 882.807 982.964 C 872.621 981.497, 868.660 981.671, 869.383 983.556  M 860.545 988.267 C 860.337 988.945, 859.921 994.900, 859.622 1001.500 C 859.323 1008.100, 858.386 1024.975, 857.540 1039 C 853.650 1103.441, 853.222 1115.401, 854.769 1116.357 C 855.192 1116.619, 860.254 1116.434, 866.019 1115.948 C 889.644 1113.953, 926.369 1110.943, 939.500 1109.924 C 947.496 1109.303, 954.030 1108.327, 954.736 1107.647 C 955.706 1106.713, 951.737 1101.045, 936.236 1081.229 C 925.381 1067.353, 914.784 1053.863, 912.688 1051.250 C 910.591 1048.638, 907.116 1043.955, 904.965 1040.846 C 902.815 1037.736, 897.555 1030.912, 893.278 1025.682 C 889 1020.452, 880.550 1009.854, 874.500 1002.131 C 863.578 988.188, 861.273 985.898, 860.545 988.267  M 726.500 997.706 C 725.400 997.967, 709.875 1003.034, 692 1008.966 C 674.125 1014.899, 648.925 1023.199, 636 1027.411 C 623.075 1031.623, 611.150 1035.662, 609.500 1036.388 L 606.500 1037.706 610 1039.172 C 611.925 1039.978, 620.025 1042.545, 628 1044.876 C 635.975 1047.207, 649.025 1051.289, 657 1053.947 C 664.975 1056.606, 684.325 1062.930, 700 1068.002 C 728.725 1077.297, 768.008 1090.171, 812.805 1104.970 C 826.173 1109.387, 837.310 1113, 837.555 1113 C 839.581 1113, 834.283 1105.649, 826 1096.966 C 820.935 1091.657, 802.686 1071.769, 799.420 1068 C 794.727 1062.583, 774.016 1040.157, 750.705 1015.250 C 732.994 996.326, 732.828 996.206, 726.500 997.706  M 999.548 1009.250 C 999.335 1009.938, 997.952 1014.550, 996.477 1019.500 C 991.966 1034.633, 985.624 1055.179, 975.595 1087.149 C 970.871 1102.210, 970.462 1104.001, 971.750 1103.999 C 972.496 1103.998, 973.545 1103.156, 983.960 1094.197 C 986.964 1091.614, 991.014 1088.337, 992.960 1086.916 C 994.907 1085.495, 1003.362 1077.933, 1011.750 1070.113 C 1028.682 1054.325, 1028.814 1054.079, 1024.700 1046 C 1021.384 1039.488, 1004.964 1011.812, 1003.193 1009.750 C 1001.425 1007.691, 1000.090 1007.508, 999.548 1009.250" stroke="none" fill="#ff0000" fill-rule="evenodd"/>
</svg>